<?xml version="1.0" standalone="no"?><svg xmlns="http://www.w3.org/2000/svg" viewBox="0 0 1440 320"><path fill="#190a07" fill-opacity="1" d="M0,128L30,160C60,192,120,256,180,288C240,320,300,320,360,288C420,256,480,192,540,144C600,96,660,64,720,69.3C780,75,840,117,900,133.3C960,149,1020,139,1080,128C1140,117,1200,107,1260,101.3C1320,96,1380,96,1410,96L1440,96L1440,0L1410,0C1380,0,1320,0,1260,0C1200,0,1140,0,1080,0C1020,0,960,0,900,0C840,0,780,0,720,0C660,0,600,0,540,0C480,0,420,0,360,0C300,0,240,0,180,0C120,0,60,0,30,0L0,0Z"></path></svg>